# xmcd
#
# Track frame offsets:
#	150
#	15200
#	33662
#	54405
#	68482
#	90012
#	109547
#	127235
#	148415
#	169277
#	189660
#	207782
#	229612
#	262582
#
# Disc length: 3849 seconds
#
# Revision: 0
# Processed by: cddbd v1.5.2PL0 Copyright (c) Steve Scherf et al.
# Submitted via: dBpowerAMP V4.0
#
DISCID=b20f070e
DTITLE=Bill Luplin - Hard Pill To Swallow
DYEAR=2007
DGENRE=Blues
TTITLE0=Think It Over Baby
TTITLE1=Funny Way To Show Me You Love Me
TTITLE2=Bad Luck
TTITLE3=Fine Little Thing
TTITLE4=I'll Be Over You Someday
TTITLE5=Elgin Bounce
TTITLE6=Cell Phone Blues
TTITLE7=See That Little Girl
TTITLE8=Hole In My Heart
TTITLE9=Blues Again Today
TTITLE10=You're Gonna Be Sorry
TTITLE11=Hook, Line And Sinker
TTITLE12=Where You Goin'
TTITLE13=Hard Pill To Swallow
EXTD=
EXTT0=
EXTT1=
EXTT2=
EXTT3=
EXTT4=
EXTT5=
EXTT6=
EXTT7=
EXTT8=
EXTT9=
EXTT10=
EXTT11=
EXTT12=
EXTT13=
PLAYORDER=
